# xmcd
#
# Track frame offsets:
#	150
#	14931
#	25289
#	36658
#	57941
#	74669
#	83572
#	93251
#	107999
#	121236
#	134834
#	147896
#	165844
#	183889
#	196915
#	209701
#	224752
#	238321
#
# Disc length: 3440 seconds
#
# Revision: 1
# Processed by: cddbd v1.5PL3 Copyright (c) Steve Scherf et al.
# Submitted via: CDex 1.50Beta5
#
DISCID=1d0d6e12
DTITLE=Frank Sinatra - The Best Of Frank Sinatra (Japan)
DYEAR=1900
DGENRE=Jazz -> Jazz Vocals
TTITLE0=The Lady Is A Tramp
TTITLE1=I've Got A Crush On You
TTITLE2=My Funny Valentine
TTITLE3=Blues In The Night
TTITLE4=The Lady Is A Tramp
TTITLE5=They Can't Take That Away From Me
TTITLE6=All Of Me
TTITLE7=As Time Goes By
TTITLE8=You Make Me Feel So Young
TTITLE9=In The Wee Small Hours Of The Morning
TTITLE10=Witchcraft
TTITLE11=Guess I'll Hang My Tears Out To Dry
TTITLE12=Night And Day
TTITLE13=All The Way
TTITLE14=South Of The Border
TTITLE15=Around The World
TTITLE16=From Here To Eternity
TTITLE17=One For My Baby
EXTD=
EXTT0=
EXTT1=
EXTT2=
EXTT3=
EXTT4=
EXTT5=
EXTT6=
EXTT7=
EXTT8=
EXTT9=
EXTT10=
EXTT11=
EXTT12=
EXTT13=
EXTT14=
EXTT15=
EXTT16=
EXTT17=
PLAYORDER=
